<svg xmlns="http://www.w3.org/2000/svg" xmlns:xlink="http://www.w3.org/1999/xlink" width="184" zoomAndPan="magnify" viewBox="0 0 138 137.999998" height="184" preserveAspectRatio="xMidYMid meet" version="1.0"><defs><g/><clipPath id="cbf2c57e55"><path d="M 42 6 L 110.789062 6 L 110.789062 80 L 42 80 Z M 42 6 " clip-rule="nonzero"/></clipPath><clipPath id="7482947b3b"><path d="M 27.539062 20 L 96 20 L 96 94 L 27.539062 94 Z M 27.539062 20 " clip-rule="nonzero"/></clipPath></defs><g clip-path="url(#cbf2c57e55)"><path fill="#057b3c" d="M 110.796875 28.191406 L 110.796875 61.191406 C 110.796875 75.945312 94.3125 84.742188 82.007812 76.558594 L 95.65625 67.484375 L 95.65625 28.925781 C 95.65625 23.050781 89.089844 19.546875 84.191406 22.804688 L 69.976562 32.257812 C 61.710938 37.753906 50.945312 37.753906 42.679688 32.257812 L 76.40625 9.832031 C 91.105469 0.0546875 110.796875 10.566406 110.796875 28.191406 Z M 110.796875 28.191406 " fill-opacity="1" fill-rule="nonzero"/></g><g clip-path="url(#7482947b3b)"><path fill="#fb050d" d="M 42.679688 32.257812 L 42.679688 70.816406 C 42.679688 76.691406 49.246094 80.195312 54.144531 76.933594 L 68.359375 67.480469 C 76.625 61.988281 87.394531 61.988281 95.65625 67.480469 L 61.929688 89.90625 C 47.230469 99.683594 27.539062 89.171875 27.539062 71.550781 L 27.539062 38.550781 C 27.539062 23.796875 44.023438 15 56.328125 23.179688 Z M 42.679688 32.257812 " fill-opacity="1" fill-rule="nonzero"/></g><g fill="#fb050d" fill-opacity="1"><g transform="translate(14.849775, 116.283434)"><g><path d="M 8.875 -5.894531 C 10.570312 -6.394531 11.765625 -7.96875 11.765625 -9.925781 C 11.765625 -12.359375 9.949219 -14.316406 7.492188 -14.316406 L 1.40625 -14.316406 L 1.40625 0 L 4.558594 0 L 4.558594 -5.535156 L 5.824219 -5.535156 L 9.355469 0 L 12.886719 0 Z M 7.015625 -8.136719 L 4.558594 -8.136719 L 4.558594 -11.527344 L 7.015625 -11.527344 C 8.019531 -11.527344 8.757812 -10.808594 8.757812 -9.832031 C 8.757812 -8.828125 8.019531 -8.136719 7.015625 -8.136719 Z M 7.015625 -8.136719 "/></g></g></g><g fill="#fb050d" fill-opacity="1"><g transform="translate(27.233661, 116.283434)"><g><path d="M 6.0625 0.191406 C 9.257812 0.191406 11.359375 -1.910156 11.359375 -4.773438 C 11.359375 -7.636719 9.257812 -9.734375 6.0625 -9.734375 C 2.863281 -9.734375 0.738281 -7.636719 0.738281 -4.773438 C 0.738281 -1.910156 2.863281 0.191406 6.0625 0.191406 Z M 6.0625 -2.503906 C 4.75 -2.53125 3.792969 -3.484375 3.792969 -4.773438 C 3.792969 -6.0625 4.75 -7.015625 6.0625 -7.039062 C 7.347656 -7.015625 8.328125 -6.0625 8.328125 -4.773438 C 8.328125 -3.484375 7.347656 -2.53125 6.0625 -2.503906 Z M 6.0625 -2.503906 "/></g></g></g><g fill="#fb050d" fill-opacity="1"><g transform="translate(38.973294, 116.283434)"><g><path d="M 7.160156 -7.183594 L 7.160156 -9.546875 L 4.890625 -9.546875 L 4.890625 -13.21875 L 1.859375 -13.21875 L 1.859375 -9.546875 L 0.261719 -9.546875 L 0.261719 -7.183594 L 1.859375 -7.183594 L 1.859375 -3.414062 C 1.859375 -1.382812 3.578125 0.191406 5.609375 0.191406 C 6.25 0.191406 6.894531 0.046875 7.136719 -0.121094 L 7.136719 -2.480469 L 5.988281 -2.480469 C 5.34375 -2.480469 4.890625 -2.984375 4.890625 -3.769531 L 4.890625 -7.183594 Z M 7.160156 -7.183594 "/></g></g></g><g fill="#fb050d" fill-opacity="1"><g transform="translate(46.227032, 116.283434)"><g><path d="M 6.0625 0.191406 C 9.257812 0.191406 11.359375 -1.910156 11.359375 -4.773438 C 11.359375 -7.636719 9.257812 -9.734375 6.0625 -9.734375 C 2.863281 -9.734375 0.738281 -7.636719 0.738281 -4.773438 C 0.738281 -1.910156 2.863281 0.191406 6.0625 0.191406 Z M 6.0625 -2.503906 C 4.75 -2.53125 3.792969 -3.484375 3.792969 -4.773438 C 3.792969 -6.0625 4.75 -7.015625 6.0625 -7.039062 C 7.347656 -7.015625 8.328125 -6.0625 8.328125 -4.773438 C 8.328125 -3.484375 7.347656 -2.53125 6.0625 -2.503906 Z M 6.0625 -2.503906 "/></g></g></g><g fill="#fb050d" fill-opacity="1"><g transform="translate(57.966666, 116.283434)"><g><path d="M 12.789062 -9.734375 C 11.429688 -9.734375 10.378906 -9.117188 9.785156 -8.066406 C 9.234375 -9.066406 8.28125 -9.734375 7.0625 -9.734375 C 5.964844 -9.734375 5.082031 -9.210938 4.460938 -8.375 L 4.460938 -9.546875 L 1.40625 -9.546875 L 1.40625 0 L 4.460938 0 L 4.460938 -5.535156 C 4.460938 -6.226562 4.890625 -7.039062 5.824219 -7.039062 C 6.65625 -7.039062 7.207031 -6.371094 7.207031 -5.535156 L 7.207031 0 L 10.261719 0 L 10.261719 -5.535156 C 10.261719 -6.226562 10.691406 -7.039062 11.621094 -7.039062 C 12.457031 -7.039062 13.027344 -6.371094 13.027344 -5.535156 L 13.027344 0 L 16.058594 0 L 16.058594 -6.039062 C 16.058594 -8.257812 14.890625 -9.734375 12.789062 -9.734375 Z M 12.789062 -9.734375 "/></g></g></g><g fill="#fb050d" fill-opacity="1"><g transform="translate(74.860308, 116.283434)"><g><path d="M 12.050781 -2.480469 C 11.644531 -2.480469 11.214844 -2.625 11.214844 -3.414062 L 11.214844 -9.546875 L 8.183594 -9.546875 L 8.183594 -8.710938 C 7.46875 -9.355469 6.5625 -9.734375 5.464844 -9.734375 C 2.816406 -9.734375 0.738281 -7.539062 0.738281 -4.773438 C 0.738281 -2.003906 2.816406 0.191406 5.464844 0.191406 C 6.847656 0.191406 7.96875 -0.429688 8.734375 -1.433594 C 9.332031 -0.453125 10.378906 0.191406 11.667969 0.191406 C 11.980469 0.191406 12.265625 0.09375 12.480469 0 L 12.480469 -2.480469 Z M 6.0625 -2.503906 C 4.796875 -2.503906 3.792969 -3.507812 3.792969 -4.773438 C 3.792969 -6.039062 4.796875 -7.039062 6.0625 -7.039062 C 7.300781 -7.039062 8.328125 -6.039062 8.328125 -4.773438 C 8.328125 -3.507812 7.300781 -2.503906 6.0625 -2.503906 Z M 6.0625 -2.503906 "/></g></g></g><g fill="#fb050d" fill-opacity="1"><g transform="translate(87.315779, 116.283434)"><g><path d="M 7.160156 -7.183594 L 7.160156 -9.546875 L 4.890625 -9.546875 L 4.890625 -13.21875 L 1.859375 -13.21875 L 1.859375 -9.546875 L 0.261719 -9.546875 L 0.261719 -7.183594 L 1.859375 -7.183594 L 1.859375 -3.414062 C 1.859375 -1.382812 3.578125 0.191406 5.609375 0.191406 C 6.25 0.191406 6.894531 0.046875 7.136719 -0.121094 L 7.136719 -2.480469 L 5.988281 -2.480469 C 5.34375 -2.480469 4.890625 -2.984375 4.890625 -3.769531 L 4.890625 -7.183594 Z M 7.160156 -7.183594 "/></g></g></g><g fill="#fb050d" fill-opacity="1"><g transform="translate(94.569513, 116.283434)"><g><path d="M 6.0625 0.191406 C 8.925781 0.191406 10.882812 -1.480469 11.285156 -3.867188 L 8.136719 -3.867188 C 7.828125 -3.054688 7.039062 -2.53125 6.0625 -2.503906 C 4.75 -2.53125 3.792969 -3.484375 3.792969 -4.773438 C 3.792969 -6.0625 4.75 -7.015625 6.0625 -7.039062 C 7.039062 -7.015625 7.828125 -6.492188 8.136719 -5.679688 L 11.285156 -5.679688 C 10.882812 -8.066406 8.925781 -9.734375 6.0625 -9.734375 C 2.863281 -9.734375 0.738281 -7.636719 0.738281 -4.773438 C 0.738281 -1.910156 2.863281 0.191406 6.0625 0.191406 Z M 6.0625 0.191406 "/></g></g></g><g fill="#fb050d" fill-opacity="1"><g transform="translate(106.022817, 116.283434)"><g><path d="M 7.136719 -9.734375 C 6.085938 -9.734375 5.128906 -9.257812 4.460938 -8.472656 L 4.460938 -16.34375 L 1.40625 -16.34375 L 1.40625 0 L 4.460938 0 L 4.460938 -5.394531 C 4.460938 -6.226562 5.152344 -7.039062 6.085938 -7.039062 C 6.945312 -7.039062 7.539062 -6.371094 7.539062 -5.535156 L 7.539062 0 L 10.59375 0 L 10.59375 -6.039062 C 10.59375 -8.136719 9.066406 -9.734375 7.136719 -9.734375 Z M 7.136719 -9.734375 "/></g></g></g><g fill="#fb050d" fill-opacity="1"><g transform="translate(117.421718, 116.283434)"><g/></g></g><g fill="#057b3c" fill-opacity="1"><g transform="translate(18.619159, 127.090515)"><g><path d="M 3.449219 -5.113281 L 0.078125 -5.113281 L 0.078125 -4.566406 L 1.492188 -4.566406 L 1.492188 0 L 2.035156 0 L 2.035156 -4.566406 L 3.449219 -4.566406 Z M 3.449219 -5.113281 "/></g></g></g><g fill="#057b3c" fill-opacity="1"><g transform="translate(22.964533, 127.090515)"><g><path d="M 3.988281 -5.113281 L 3.988281 -2.828125 L 1.167969 -2.828125 L 1.167969 -5.113281 L 0.621094 -5.113281 L 0.621094 0 L 1.167969 0 L 1.167969 -2.285156 L 3.988281 -2.285156 L 3.988281 0 L 4.53125 0 L 4.53125 -5.113281 Z M 3.988281 -5.113281 "/></g></g></g><g fill="#057b3c" fill-opacity="1"><g transform="translate(28.937174, 127.090515)"><g><path d="M 3.460938 -4.585938 L 3.460938 -5.113281 L 0.664062 -5.113281 L 0.664062 0 L 3.460938 0 L 3.460938 -0.527344 L 1.210938 -0.527344 L 1.210938 -2.292969 L 3.167969 -2.292969 L 3.167969 -2.820312 L 1.210938 -2.820312 L 1.210938 -4.585938 Z M 3.460938 -4.585938 "/></g></g></g><g fill="#057b3c" fill-opacity="1"><g transform="translate(33.725575, 127.090515)"><g/></g></g><g fill="#057b3c" fill-opacity="1"><g transform="translate(36.597036, 127.090515)"><g><path d="M 5.128906 -5.113281 L 3.160156 -0.65625 L 1.203125 -5.113281 L 0.621094 -5.113281 L 0.621094 0 L 1.167969 0 L 1.167969 -4.039062 L 2.929688 0 L 3.382812 0 L 5.164062 -4.023438 L 5.164062 0 L 5.699219 0 L 5.699219 -5.113281 Z M 5.128906 -5.113281 "/></g></g></g><g fill="#057b3c" fill-opacity="1"><g transform="translate(43.736881, 127.090515)"><g><path d="M 3.707031 0 L 4.304688 0 L 2.453125 -5.113281 L 1.847656 -5.113281 L 0 0 L 0.597656 0 L 1.015625 -1.191406 L 3.289062 -1.191406 Z M 1.191406 -1.710938 L 2.15625 -4.464844 L 3.109375 -1.710938 Z M 1.191406 -1.710938 "/></g></g></g><g fill="#057b3c" fill-opacity="1"><g transform="translate(48.857551, 127.090515)"><g><path d="M 3.449219 -5.113281 L 0.078125 -5.113281 L 0.078125 -4.566406 L 1.492188 -4.566406 L 1.492188 0 L 2.035156 0 L 2.035156 -4.566406 L 3.449219 -4.566406 Z M 3.449219 -5.113281 "/></g></g></g><g fill="#057b3c" fill-opacity="1"><g transform="translate(53.202925, 127.090515)"><g><path d="M 3.042969 0.0664062 C 4.023438 0.0664062 4.875 -0.46875 5.324219 -1.261719 L 4.855469 -1.523438 C 4.507812 -0.894531 3.824219 -0.476562 3.042969 -0.476562 C 1.890625 -0.476562 0.960938 -1.398438 0.960938 -2.554688 C 0.960938 -3.714844 1.890625 -4.636719 3.042969 -4.636719 C 3.824219 -4.636719 4.507812 -4.21875 4.855469 -3.585938 L 5.324219 -3.851562 C 4.875 -4.644531 4.023438 -5.179688 3.042969 -5.179688 C 1.59375 -5.179688 0.417969 -4.003906 0.417969 -2.554688 C 0.417969 -1.109375 1.59375 0.0664062 3.042969 0.0664062 Z M 3.042969 0.0664062 "/></g></g></g><g fill="#057b3c" fill-opacity="1"><g transform="translate(59.627112, 127.090515)"><g><path d="M 3.988281 -5.113281 L 3.988281 -2.828125 L 1.167969 -2.828125 L 1.167969 -5.113281 L 0.621094 -5.113281 L 0.621094 0 L 1.167969 0 L 1.167969 -2.285156 L 3.988281 -2.285156 L 3.988281 0 L 4.53125 0 L 4.53125 -5.113281 Z M 3.988281 -5.113281 "/></g></g></g><g fill="#057b3c" fill-opacity="1"><g transform="translate(65.599752, 127.090515)"><g><path d="M 0.664062 0 L 1.210938 0 L 1.210938 -5.113281 L 0.664062 -5.113281 Z M 0.664062 0 "/></g></g></g><g fill="#057b3c" fill-opacity="1"><g transform="translate(68.283783, 127.090515)"><g><path d="M 4.292969 -5.113281 L 4.292969 -0.910156 L 1.132812 -5.113281 L 0.621094 -5.113281 L 0.621094 0 L 1.167969 0 L 1.167969 -4.199219 L 4.320312 0 L 4.832031 0 L 4.832031 -5.113281 Z M 4.292969 -5.113281 "/></g></g></g><g fill="#057b3c" fill-opacity="1"><g transform="translate(74.554617, 127.090515)"><g><path d="M 3.058594 -2.710938 L 3.058594 -2.199219 L 5.113281 -2.199219 C 4.949219 -1.210938 4.097656 -0.476562 3.066406 -0.476562 C 1.917969 -0.476562 0.988281 -1.398438 0.988281 -2.554688 C 0.988281 -3.714844 1.917969 -4.636719 3.066406 -4.636719 C 3.84375 -4.636719 4.523438 -4.21875 4.875 -3.585938 L 5.34375 -3.851562 C 4.898438 -4.644531 4.046875 -5.179688 3.066406 -5.179688 C 1.609375 -5.179688 0.441406 -4.003906 0.441406 -2.554688 C 0.441406 -1.109375 1.609375 0.0664062 3.066406 0.0664062 C 4.515625 0.0664062 5.691406 -1.109375 5.691406 -2.554688 L 5.691406 -2.710938 Z M 3.058594 -2.710938 "/></g></g></g><g fill="#057b3c" fill-opacity="1"><g transform="translate(81.498511, 127.090515)"><g/></g></g><g fill="#057b3c" fill-opacity="1"><g transform="translate(84.369972, 127.090515)"><g><path d="M 3.058594 -2.710938 L 3.058594 -2.199219 L 5.113281 -2.199219 C 4.949219 -1.210938 4.097656 -0.476562 3.066406 -0.476562 C 1.917969 -0.476562 0.988281 -1.398438 0.988281 -2.554688 C 0.988281 -3.714844 1.917969 -4.636719 3.066406 -4.636719 C 3.84375 -4.636719 4.523438 -4.21875 4.875 -3.585938 L 5.34375 -3.851562 C 4.898438 -4.644531 4.046875 -5.179688 3.066406 -5.179688 C 1.609375 -5.179688 0.441406 -4.003906 0.441406 -2.554688 C 0.441406 -1.109375 1.609375 0.0664062 3.066406 0.0664062 C 4.515625 0.0664062 5.691406 -1.109375 5.691406 -2.554688 L 5.691406 -2.710938 Z M 3.058594 -2.710938 "/></g></g></g><g fill="#057b3c" fill-opacity="1"><g transform="translate(91.31387, 127.090515)"><g><path d="M 3.707031 0 L 4.304688 0 L 2.453125 -5.113281 L 1.847656 -5.113281 L 0 0 L 0.597656 0 L 1.015625 -1.191406 L 3.289062 -1.191406 Z M 1.191406 -1.710938 L 2.15625 -4.464844 L 3.109375 -1.710938 Z M 1.191406 -1.710938 "/></g></g></g><g fill="#057b3c" fill-opacity="1"><g transform="translate(96.434544, 127.090515)"><g><path d="M 5.128906 -5.113281 L 3.160156 -0.65625 L 1.203125 -5.113281 L 0.621094 -5.113281 L 0.621094 0 L 1.167969 0 L 1.167969 -4.039062 L 2.929688 0 L 3.382812 0 L 5.164062 -4.023438 L 5.164062 0 L 5.699219 0 L 5.699219 -5.113281 Z M 5.128906 -5.113281 "/></g></g></g><g fill="#057b3c" fill-opacity="1"><g transform="translate(103.574393, 127.090515)"><g><path d="M 3.460938 -4.585938 L 3.460938 -5.113281 L 0.664062 -5.113281 L 0.664062 0 L 3.460938 0 L 3.460938 -0.527344 L 1.210938 -0.527344 L 1.210938 -2.292969 L 3.167969 -2.292969 L 3.167969 -2.820312 L 1.210938 -2.820312 L 1.210938 -4.585938 Z M 3.460938 -4.585938 "/></g></g></g><g fill="#057b3c" fill-opacity="1"><g transform="translate(108.362797, 127.090515)"><g/></g></g><g fill="#057b3c" fill-opacity="1"><g transform="translate(111.234262, 127.090515)"><g><path d="M 0.664062 0 L 1.210938 0 L 1.210938 -5.113281 L 0.664062 -5.113281 Z M 0.664062 0 "/></g></g></g><g fill="#057b3c" fill-opacity="1"><g transform="translate(113.918297, 127.090515)"><g><path d="M 4.292969 -5.113281 L 4.292969 -0.910156 L 1.132812 -5.113281 L 0.621094 -5.113281 L 0.621094 0 L 1.167969 0 L 1.167969 -4.199219 L 4.320312 0 L 4.832031 0 L 4.832031 -5.113281 Z M 4.292969 -5.113281 "/></g></g></g><g fill="#057b3c" fill-opacity="1"><g transform="translate(50.220938, 135.784001)"><g><path d="M 3.707031 0 L 4.304688 0 L 2.453125 -5.113281 L 1.847656 -5.113281 L 0 0 L 0.597656 0 L 1.015625 -1.191406 L 3.289062 -1.191406 Z M 1.191406 -1.710938 L 2.15625 -4.464844 L 3.109375 -1.710938 Z M 1.191406 -1.710938 "/></g></g></g><g fill="#057b3c" fill-opacity="1"><g transform="translate(55.341609, 135.784001)"><g><path d="M 4.292969 -5.113281 L 4.292969 -0.910156 L 1.132812 -5.113281 L 0.621094 -5.113281 L 0.621094 0 L 1.167969 0 L 1.167969 -4.199219 L 4.320312 0 L 4.832031 0 L 4.832031 -5.113281 Z M 4.292969 -5.113281 "/></g></g></g><g fill="#057b3c" fill-opacity="1"><g transform="translate(61.612443, 135.784001)"><g><path d="M 3.058594 -2.710938 L 3.058594 -2.199219 L 5.113281 -2.199219 C 4.949219 -1.210938 4.097656 -0.476562 3.066406 -0.476562 C 1.917969 -0.476562 0.988281 -1.398438 0.988281 -2.554688 C 0.988281 -3.714844 1.917969 -4.636719 3.066406 -4.636719 C 3.84375 -4.636719 4.523438 -4.21875 4.875 -3.585938 L 5.34375 -3.851562 C 4.898438 -4.644531 4.046875 -5.179688 3.066406 -5.179688 C 1.609375 -5.179688 0.441406 -4.003906 0.441406 -2.554688 C 0.441406 -1.109375 1.609375 0.0664062 3.066406 0.0664062 C 4.515625 0.0664062 5.691406 -1.109375 5.691406 -2.554688 L 5.691406 -2.710938 Z M 3.058594 -2.710938 "/></g></g></g><g fill="#057b3c" fill-opacity="1"><g transform="translate(68.55634, 135.784001)"><g><path d="M 2.511719 0.0664062 C 3.628906 0.0664062 4.4375 -0.671875 4.4375 -1.679688 L 4.4375 -5.113281 L 3.894531 -5.113281 L 3.894531 -1.765625 C 3.894531 -1.023438 3.304688 -0.476562 2.511719 -0.476562 C 1.722656 -0.476562 1.140625 -1.023438 1.140625 -1.765625 L 1.140625 -5.113281 L 0.597656 -5.113281 L 0.597656 -1.679688 C 0.597656 -0.671875 1.40625 0.0664062 2.511719 0.0664062 Z M 2.511719 0.0664062 "/></g></g></g><g fill="#057b3c" fill-opacity="1"><g transform="translate(74.40971, 135.784001)"><g><path d="M 1.167969 -0.546875 L 1.167969 -5.113281 L 0.621094 -5.113281 L 0.621094 0 L 3.066406 0 L 3.066406 -0.546875 Z M 1.167969 -0.546875 "/></g></g></g><g fill="#057b3c" fill-opacity="1"><g transform="translate(78.371695, 135.784001)"><g><path d="M 3.707031 0 L 4.304688 0 L 2.453125 -5.113281 L 1.847656 -5.113281 L 0 0 L 0.597656 0 L 1.015625 -1.191406 L 3.289062 -1.191406 Z M 1.191406 -1.710938 L 2.15625 -4.464844 L 3.109375 -1.710938 Z M 1.191406 -1.710938 "/></g></g></g><g fill="#057b3c" fill-opacity="1"><g transform="translate(83.492365, 135.784001)"><g><path d="M 2.691406 -2.335938 C 3.367188 -2.429688 3.878906 -2.992188 3.878906 -3.679688 C 3.878906 -4.480469 3.238281 -5.113281 2.453125 -5.113281 L 0.621094 -5.113281 L 0.621094 0 L 1.167969 0 L 1.167969 -2.308594 L 2.128906 -2.308594 L 3.578125 0 L 4.199219 0 Z M 1.167969 -2.828125 L 1.167969 -4.566406 L 2.421875 -4.566406 C 2.929688 -4.566406 3.332031 -4.210938 3.332031 -3.699219 C 3.332031 -3.179688 2.941406 -2.828125 2.421875 -2.828125 Z M 1.167969 -2.828125 "/></g></g></g></svg>